<?xml version="1.0" encoding="iso-8859-1"?>
<!-- Generator: Adobe Illustrator 16.0.0, SVG Export Plug-In . SVG Version: 6.00 Build 0)  -->
<!DOCTYPE svg PUBLIC "-//W3C//DTD SVG 1.1//EN" "http://www.w3.org/Graphics/SVG/1.1/DTD/svg11.dtd">
<svg xmlns="http://www.w3.org/2000/svg" xmlns:xlink="http://www.w3.org/1999/xlink" version="1.1" id="Capa_1" x="0px" y="0px" width="512px" height="512px" viewBox="0 0 549.475 549.475" style="enable-background:new 0 0 549.475 549.475;" xml:space="preserve">
<g>
	<g>
		<path d="M291.204,61.232c5.508-76.758-51.819-59.593-51.819-59.593s-38.862,9.715-28.506,51.169    c14.248,34.979,67.693,98.456,67.693,98.456S285.696,137.991,291.204,61.232z" fill="#006DF0"/>
		<path d="M456.789,129.107c0,0-8.53-39.139-50.28-30.045c-35.391,13.187-100.464,64.671-100.464,64.671s13.053,7.526,89.61,15.357    S456.789,129.107,456.789,129.107z" fill="#006DF0"/>
		<path d="M369.769,13.525c0,0-35.285-18.972-55.52,18.666c-12.995,35.458-16.189,118.374-16.189,118.374s14.21-5.03,69.94-58.092    C423.721,39.411,369.769,13.525,369.769,13.525z" fill="#006DF0"/>
		<path d="M311.821,178.517c0,0,3.289,14.707,49.285,76.404c45.995,61.697,78.164,11.236,78.164,11.236s23.064-32.751-11.867-57.356    C393.752,191.646,311.821,178.517,311.821,178.517z" fill="#006DF0"/>
		<path d="M362.635,291.966c-13.339-35.333-65.11-100.186-65.11-100.186s-5.833,16.658-14.966,89.677    c-9.543,76.356,50.251,60.923,50.251,60.923S371.921,333.678,362.635,291.966z" fill="#006DF0"/>
		<path d="M129.158,84.46c0,0-20.731,34.281,15.826,56.39c34.759,14.784,117.408,22.176,117.408,22.176s-4.303-14.439-54.478-72.79    C157.74,31.885,129.158,84.46,129.158,84.46z" fill="#006DF0"/>
		<path d="M112.806,228.203c0,0,12.565,38.04,53.139,24.643c33.832-16.792,93.187-74.779,93.187-74.779s-13.77-6.129-90.72-5.948    C91.462,172.301,112.806,228.203,112.806,228.203z" fill="#006DF0"/>
		<path d="M284.73,549.475h34.979c0,0-110.322-86.617-93.043-226.201c7.898-1.932,14.64-4.963,22.443-15.357    c18.178-33.105,27.846-120.143,27.846-120.143s-18.293,10.796-71.929,53.607c-65.044,51.906-13.607,77.982-13.607,77.982    s12.441,6.312,29.061,4.915C209.454,369.518,197.099,482.537,284.73,549.475z" fill="#006DF0"/>
		<path d="M93.317,428.184c-6.799,22.348,6.799,55.387,6.799,55.387c38.862,83.557,129.228,47.611,129.228,47.611    C187.565,444.708,98.367,411.612,93.317,428.184z" fill="#006DF0"/>
	</g>
</g>
<g>
</g>
<g>
</g>
<g>
</g>
<g>
</g>
<g>
</g>
<g>
</g>
<g>
</g>
<g>
</g>
<g>
</g>
<g>
</g>
<g>
</g>
<g>
</g>
<g>
</g>
<g>
</g>
<g>
</g>
</svg>
